<svg xmlns="http://www.w3.org/2000/svg" width="1200" height="630" viewBox="0 0 1200 630" role="img" aria-labelledby="title desc">
  <title id="title">PDF Toolbox project cover</title>
  <desc id="desc">Merge, split, rotate, encrypt and watermark PDF files offline</desc>
  <defs>
    <radialGradient id="softGlow" cx="80%" cy="22%" r="62%">
      <stop offset="0" stop-color="#EF4444" stop-opacity=".18"/>
      <stop offset=".58" stop-color="#F97316" stop-opacity=".08"/>
      <stop offset="1" stop-color="#FFF8F6" stop-opacity="0"/>
    </radialGradient>
    <filter id="shadow" x="-20%" y="-20%" width="140%" height="140%">
      <feDropShadow dx="0" dy="20" stdDeviation="24" flood-color="#2A1111" flood-opacity=".14"/>
    </filter>
  </defs>
  <rect width="1200" height="630" rx="44" fill="#FFF8F6"/>
  <rect width="1200" height="630" rx="44" fill="url(#softGlow)"/>
  <path d="M70 96 C250 30 374 74 514 44 C658 12 746 54 864 34 C982 14 1074 52 1130 108" fill="none" stroke="#2A1111" stroke-opacity=".055" stroke-width="26" stroke-linecap="round"/>
  <g filter="url(#shadow)">
    <rect x="58" y="64" width="1084" height="502" rx="42" fill="white" fill-opacity=".76" stroke="white" stroke-width="2"/>
  </g>
  <g transform="translate(90 118)">
    <rect x="0" y="0" width="58" height="58" rx="18" fill="#EF4444"/>
    <circle cx="42" cy="16" r="10" fill="#F97316"/>
    <text x="78" y="24" font-family="Inter, Arial, sans-serif" font-size="20" font-weight="800" fill="#EF4444">SpringShaw/PDF-Toolbox</text>
    <text x="78" y="51" font-family="Inter, Arial, sans-serif" font-size="18" font-weight="650" fill="#2A1111" opacity=".58">Local PDF processing</text>
  </g>
  <text x="90" y="262" font-family="Inter, Arial, sans-serif" font-size="68" font-weight="900" fill="#2A1111">PDF Toolbox</text>
  <text x="92" y="318" font-family="Inter, Arial, sans-serif" font-size="27" font-weight="650" fill="#2A1111" opacity=".70">Merge, split, rotate, encrypt and watermark PDF files offline</text>
  <path d="M92 374 h390" stroke="#EF4444" stroke-width="10" stroke-linecap="round"/>
  <path d="M92 399 h260" stroke="#F97316" stroke-width="10" stroke-linecap="round" opacity=".65"/>
  <rect x="90" y="482" width="93" height="44" rx="22" fill="white" stroke="#2A1111" stroke-opacity=".10"/><text x="109" y="511" font-family="Inter, Arial, sans-serif" font-size="18" font-weight="700" fill="#2A1111" opacity=".72">Merge</text><rect x="197" y="482" width="93" height="44" rx="22" fill="white" stroke="#2A1111" stroke-opacity=".10"/><text x="216" y="511" font-family="Inter, Arial, sans-serif" font-size="18" font-weight="700" fill="#2A1111" opacity=".72">Split</text><rect x="304" y="482" width="115" height="44" rx="22" fill="white" stroke="#2A1111" stroke-opacity=".10"/><text x="323" y="511" font-family="Inter, Arial, sans-serif" font-size="18" font-weight="700" fill="#2A1111" opacity=".72">Encrypt</text><rect x="433" y="482" width="137" height="44" rx="22" fill="white" stroke="#2A1111" stroke-opacity=".10"/><text x="452" y="511" font-family="Inter, Arial, sans-serif" font-size="18" font-weight="700" fill="#2A1111" opacity=".72">Watermark</text>
  
        <g transform="translate(722 132)">
          <path d="M82 24 h190 l84 84 v286 H82z" fill="white" stroke="#2A1111" stroke-width="8" stroke-linejoin="round"/>
          <path d="M272 26 v84 h84" fill="#EF444418" stroke="#2A1111" stroke-width="8" stroke-linejoin="round"/>
          <rect x="40" y="166" width="188" height="86" rx="18" fill="#EF4444"/>
          <text x="72" y="224" font-family="Inter, Arial, sans-serif" font-size="44" font-weight="900" fill="white">PDF</text>
          <path d="M114 298 h188 M114 338 h148" stroke="#2A1111" stroke-width="10" stroke-linecap="round" opacity=".38"/>
          <path d="M286 252 l72 72 M358 252 l-72 72" stroke="#F97316" stroke-width="12" stroke-linecap="round"/>
        </g>
</svg>
